# xmcd CD database file
#
# Track frame offsets:
#	182
#	12610
#	27097
#	39067
#	53120
#	64572
#	76787
#	88712
#	102535
#	116967
#	130632
#	145202
#	156535
#	169945
#	183772
#	198397
#	212490
#	226815
#	241150
#	252112
#	265287
#	279627
#	294300
#	308930
#	321290
#
# Disc length: 4481 seconds
#
# Revision: 5
# Processed by: cddbd v1.5.2PL0 Copyright (c) Steve Scherf et al.
# Submitted via: CDex 1.51
#
DISCID=5c117f19
DTITLE=Cootie Williams - Sextet - Big Band  {1941-1944}
DYEAR=1995
DGENRE=Jazz
TTITLE0=G-Men   [1941]
TTITLE1=West End Blues   [1941]
TTITLE2=Ain't Misbehavin'   [1941]
TTITLE3=Blues In My Condition   [1941]
TTITLE4=Fly Right  (Epistrophy)   [1942]
TTITLE5=When My Baby Left Me   [1942]
TTITLE6=Floogie Boo   [1944]
TTITLE7=Gotta Do Some War Work, Baby   [1944]
TTITLE8=I Don't Know   [1944]
TTITLE9=You Talk A Little Trash   [1944]
TTITLE10=Things Ain't What They Used To Be   [1944]
TTITLE11=Tess' Torch Song   [1944]
TTITLE12=Now I Now   [1944]
TTITLE13=Cherry Red Blues   [1944]
TTITLE14=My Old Flame   [1944]
TTITLE15=Echoes Of Harlem   [1944]
TTITLE16=Honeysuckle Rose   [1944]
TTITLE17=Sweet Lorraine   [1944]
TTITLE18=Air Mail Special   [1944]
TTITLE19=Roll' Em   [1944]
TTITLE20=The Boppers   [1944]
TTITLE21=Somebody's Gotta Go   [1944]
TTITLE22='Round Midnight   [1944]
TTITLE23=Is You Is Or Is You Ain't My Baby ¿   [1944]
TTITLE24=Blue Garden Blues   [1944]
EXTD=YEAR: 1995
EXTT0=
EXTT1=
EXTT2=
EXTT3=
EXTT4=
EXTT5=
EXTT6=
EXTT7=
EXTT8=
EXTT9=
EXTT10=
EXTT11=
EXTT12=
EXTT13=
EXTT14=
EXTT15=
EXTT16=
EXTT17=
EXTT18=
EXTT19=
EXTT20=
EXTT21=
EXTT22=
EXTT23=
EXTT24=
PLAYORDER=
